<svg width="14" height="14" viewBox="0 0 14 14" fill="none" xmlns="http://www.w3.org/2000/svg">
<path d="M0.55797 8.34926L1.26912 9.05911C1.44421 9.23366 1.54245 9.47089 1.5419 9.71815V10.5498C1.54245 11.0557 1.74371 11.5408 2.10142 11.8986C2.45911 12.2564 2.94405 12.4578 3.45004 12.4584H4.28168C4.52851 12.4593 4.76508 12.5573 4.94008 12.7313L5.65059 13.4418C6.00874 13.7993 6.49401 14 7 14C7.50598 14 7.99126 13.7993 8.3494 13.4418L9.05927 12.7313C9.23458 12.5574 9.47128 12.4594 9.71831 12.4584H10.5506C11.0565 12.4578 11.5415 12.2564 11.8992 11.8986C12.2569 11.5408 12.4582 11.0557 12.4586 10.5498V9.71815C12.4582 9.47088 12.5564 9.23366 12.7315 9.05911L13.442 8.34926C13.7993 7.99101 14 7.50575 14 6.99988C14 6.49402 13.7993 6.00876 13.442 5.65051L12.7309 4.94065C12.5558 4.76611 12.4575 4.52887 12.4581 4.28162V3.45C12.4575 2.94402 12.2563 2.45898 11.8986 2.10118C11.5409 1.74338 11.0559 1.54201 10.55 1.54134H9.71831C9.47159 1.54057 9.23502 1.44278 9.05991 1.26911L8.3494 0.55797C7.99114 0.200698 7.50587 0 6.99999 0C6.49412 0 6.00884 0.20071 5.65059 0.55797L4.94072 1.26911C4.76541 1.443 4.52871 1.54101 4.28168 1.54188H3.44939C2.94352 1.54264 2.45847 1.74401 2.10077 2.1018C1.74307 2.45961 1.54181 2.94465 1.54137 3.45062V4.28158C1.54191 4.52873 1.44401 4.76595 1.26913 4.94061L0.557981 5.65046C0.200702 6.00871 0 6.49398 0 6.99984C0 7.5057 0.200702 7.99101 0.55797 8.34926ZM4.70124 6.65604C4.79271 6.56446 4.91689 6.51289 5.04641 6.51289C5.17592 6.51289 5.30011 6.56446 5.39157 6.65604L6.34892 7.61138L8.60868 5.35224C8.7334 5.23613 8.90957 5.19328 9.07366 5.2394C9.23763 5.2854 9.36585 5.41361 9.41196 5.57769C9.45797 5.74177 9.41512 5.91794 9.29901 6.04255L6.69409 8.64742C6.60262 8.73911 6.47844 8.79089 6.34893 8.79089C6.2193 8.79089 6.09512 8.73921 6.00376 8.64753L4.70125 7.34504C4.60967 7.25357 4.5581 7.12939 4.5581 6.99988C4.5581 6.87037 4.60967 6.74619 4.70125 6.65472L4.70124 6.65604Z" fill="#005EEB"/>
</svg>
