<svg width="18" height="20" viewBox="0 0 18 20" fill="none" xmlns="http://www.w3.org/2000/svg">
<path fill-rule="evenodd" clip-rule="evenodd" d="M12.6315 0.871854H2.65179V8.9023C2.65179 9.14299 2.45423 9.33823 2.21067 9.33823C1.96711 9.33823 1.76955 9.14299 1.76955 8.9023V0.43593C1.76955 0.195237 1.96712 0 2.21067 0H12.9256C13.0436 0 13.1554 0.0465996 13.2387 0.128943L16.0989 2.95549C16.1818 3.0374 16.2281 3.14785 16.2281 3.2637L16.2282 8.9023C16.2282 9.14299 16.0306 9.33823 15.787 9.33823C15.5435 9.33823 15.3459 9.14299 15.3459 8.9023V3.55431H14.3563C13.8817 3.55431 13.4504 3.36262 13.1379 3.05384C12.8255 2.74505 12.6315 2.31885 12.6315 1.8498L12.6315 0.871854ZM2.65179 18.8916H15.3459V16.6202C15.3459 16.3795 15.5435 16.1842 15.787 16.1842C16.0306 16.1842 16.2281 16.3795 16.2281 16.6202V19.3275C16.2281 19.5682 16.0306 19.7634 15.787 19.7634H2.21065C1.96709 19.7634 1.76953 19.5682 1.76953 19.3275V16.6202C1.76953 16.3795 1.96709 16.1842 2.21065 16.1842C2.45421 16.1842 2.65177 16.3795 2.65177 16.6202L2.65179 18.8916Z" fill="black"/>
<path fill-rule="evenodd" clip-rule="evenodd" d="M4.73047 5.00684H13.2701V5.7334H4.73047V5.00684Z" fill="black"/>
<path fill-rule="evenodd" clip-rule="evenodd" d="M4.73047 6.73145H13.2701V7.45801H4.73047V6.73145Z" fill="black"/>
<path fill-rule="evenodd" clip-rule="evenodd" d="M4.73047 3.2832H10.7683V4.0098H4.73047V3.2832Z" fill="black"/>
<path fill-rule="evenodd" clip-rule="evenodd" d="M4.59021 14.6052V10.9166H5.34365V14.6052H4.59021ZM6.05189 14.6052V10.9166H7.17987L7.85684 13.4329L8.52599 10.9166H9.65658V14.6052H8.95702V11.7016L8.21574 14.6052H7.49011L6.75145 11.7016V14.6052H6.05189ZM10.2753 12.7484C10.2753 12.3646 10.357 12.0228 10.5195 11.7239C10.6829 11.4259 10.921 11.1966 11.2356 11.0377C11.4746 10.9149 11.7726 10.8539 12.1289 10.8539C12.5921 10.8539 12.9545 10.9501 13.2143 11.1416C13.475 11.334 13.6427 11.5994 13.7175 11.9386L12.9693 12.0769C12.9163 11.8957 12.8172 11.7522 12.6721 11.6475C12.5269 11.5427 12.3462 11.4903 12.1289 11.4903C11.7996 11.4903 11.538 11.5934 11.3433 11.7995C11.1487 12.0064 11.0522 12.3122 11.0522 12.7184C11.0522 13.1555 11.1504 13.4844 11.3477 13.7034C11.5441 13.9224 11.8022 14.0315 12.1211 14.0315C12.2793 14.0315 12.4374 14.0006 12.5965 13.9396C12.7546 13.8786 12.8911 13.8039 13.0049 13.7172V13.2491H12.142V12.6274H13.7661V14.0968C13.608 14.2479 13.3794 14.381 13.0796 14.4961C12.7798 14.6103 12.4765 14.6678 12.1698 14.6678C11.7796 14.6678 11.4389 14.5871 11.1487 14.4257C10.8584 14.2634 10.6403 14.0323 10.4943 13.7309C10.3483 13.4295 10.2753 13.1023 10.2753 12.7484ZM2.65294 16.9105H15.3471H16.2293H17.7059C17.8683 16.9105 18 16.7803 18 16.6198V8.90197C18 8.74146 17.8683 8.61133 17.7059 8.61133H16.2293H15.3471H2.65294H1.7707H0.294099C0.131679 8.61133 0 8.74146 0 8.90197V16.6198C0 16.7803 0.131679 16.9105 0.294099 16.9105H1.7707H2.65294Z" fill="black"/>
</svg>
